<svg id="visual" viewBox="0 0 900 200" width="900" height="200" xmlns="http://www.w3.org/2000/svg" xmlns:xlink="http://www.w3.org/1999/xlink" version="1.1"><path d="M0 160L10.7 160.5C21.3 161 42.7 162 64.2 148.2C85.7 134.3 107.3 105.7 128.8 83.5C150.3 61.3 171.7 45.7 193 48.7C214.3 51.7 235.7 73.3 257 83.8C278.3 94.3 299.7 93.7 321.2 104C342.7 114.3 364.3 135.7 385.8 141.3C407.3 147 428.7 137 450 124.7C471.3 112.3 492.7 97.7 514.2 82.8C535.7 68 557.3 53 578.8 55C600.3 57 621.7 76 643 95C664.3 114 685.7 133 707 138.2C728.3 143.3 749.7 134.7 771.2 130.8C792.7 127 814.3 128 835.8 129.7C857.3 131.3 878.7 133.7 889.3 134.8L900 136L900 0L889.3 0C878.7 0 857.3 0 835.8 0C814.3 0 792.7 0 771.2 0C749.7 0 728.3 0 707 0C685.7 0 664.3 0 643 0C621.7 0 600.3 0 578.8 0C557.3 0 535.7 0 514.2 0C492.7 0 471.3 0 450 0C428.7 0 407.3 0 385.8 0C364.3 0 342.7 0 321.2 0C299.7 0 278.3 0 257 0C235.7 0 214.3 0 193 0C171.7 0 150.3 0 128.8 0C107.3 0 85.7 0 64.2 0C42.7 0 21.3 0 10.7 0L0 0Z" fill="#eff6ff" stroke-linecap="round" stroke-linejoin="miter"></path></svg>